<?xml version="1.0" encoding="utf-8"?>
<!-- Generator: Adobe Illustrator 16.0.0, SVG Export Plug-In . SVG Version: 6.00 Build 0)  -->
<!DOCTYPE svg PUBLIC "-//W3C//DTD SVG 1.1//EN" "http://www.w3.org/Graphics/SVG/1.1/DTD/svg11.dtd">
<svg version="1.1" id="Ebene_1" xmlns="http://www.w3.org/2000/svg" xmlns:xlink="http://www.w3.org/1999/xlink" x="0px" y="0px"
	 width="199.368px" height="53.856px" viewBox="0 0 199.368 53.856" enable-background="new 0 0 199.368 53.856"
	 xml:space="preserve">
<g>
	<defs>
		<rect id="SVGID_1_" width="199.368" height="53.856"/>
	</defs>
	<clipPath id="SVGID_2_">
		<use xlink:href="#SVGID_1_"  overflow="visible"/>
	</clipPath>
	<path clip-path="url(#SVGID_2_)" d="M192.96,35.208c0,7.057-4.608,12.601-11.52,12.601c-7.129,0-11.809-5.544-11.809-12.601
		c0-7.128,4.68-12.6,11.809-12.6C188.352,22.608,192.96,28.08,192.96,35.208 M39.96,52.992h6.552V17.424H39.96V52.992z
		 M60.984,52.992V33.768c0-6.408,4.104-11.088,10.367-11.088c6.049,0,9.864,4.464,9.864,11.088v19.224h6.624V33.768
		c0-6.408,4.104-11.088,10.368-11.088c6.048,0,9.864,4.464,9.864,11.088v19.224h6.624V32.544c0-9.145-6.12-15.913-15.192-15.913
		c-7.56,0-11.592,5.184-13.104,8.64c-2.305-5.256-7.128-8.64-13.465-8.64c-6.552,0-10.584,4.464-11.951,7.344v-6.552h-6.553v35.567
		H60.984z M192.816,46.872v6.12h6.552V17.424h-6.552v5.904c-0.864-1.873-4.824-6.769-12.601-6.769
		c-9.359,0-17.352,7.056-17.352,18.647c0,11.736,7.992,18.648,17.352,18.648C188.28,53.856,191.952,48.672,192.816,46.872
		 M128.88,52.992V33.768c0-6.48,4.176-11.088,10.512-11.088c6.12,0,10.152,4.392,10.152,11.088v19.224h6.624V32.544
		c0-9.145-6.192-15.913-15.192-15.913c-6.624,0-10.655,4.464-12.096,7.344V0h-6.552v52.992H128.88z M6.336,36.576L25.92,52.992
		h9.288L13.248,34.2l21.024-16.775h-9.36L6.336,32.472V0H0v52.992h6.336V36.576z"/>
</g>
</svg>
